<svg width="24" height="24" viewBox="0 0 24 24" fill="none" xmlns="http://www.w3.org/2000/svg">
  <path d="M17.0421 12.5C17.0421 14.73 18.8121 15.86 18.8421 15.88C18.8321 15.9 18.5021 17.1 17.6021 18.34C16.8021 19.42 15.9721 20.5 14.7021 20.5C13.4421 20.5 13.0821 19.73 11.6321 19.73C10.1521 19.73 9.7521 20.5 8.5521 20.5C7.2821 20.5 6.4221 19.37 5.5721 18.29C4.4921 16.89 3.5821 14.7 3.5821 12.59C3.5821 9.25 5.8921 7.5 8.1721 7.5C9.3921 7.5 10.4221 8.38 11.1721 8.38C11.8721 8.38 13.0421 7.5 14.4821 7.5C15.0021 7.5 16.9721 7.57 18.2621 9.36C18.1921 9.41 17.0521 10.08 17.0421 12.5ZM14.3521 5.96C14.9821 5.2 15.4021 4.16 15.4021 3.12C15.4021 2.99 15.3921 2.86 15.3721 2.75C14.4021 2.79 13.2621 3.4 12.5621 4.23C11.9821 4.9 11.4721 5.94 11.4721 7C11.4721 7.15 11.4921 7.3 11.5021 7.34C11.5621 7.35 11.6521 7.36 11.7421 7.36C12.6021 7.36 13.6821 6.78 14.3521 5.96Z" fill="#555555"/>
</svg> 